KumbhSans-Display.ufo
<glyph name="parenleft" format="1">
  <advance width="607"/>
  <unicode hex="0028"/>
  <outline>
    <contour>
      <point x="532" y="-289" type="line" name="av02"/>
      <point x="330" y="-25"/>
      <point x="221" y="297"/>
      <point x="221" y="626" type="curve" smooth="yes" name="dh02"/>
      <point x="221" y="956"/>
      <point x="330" y="1277"/>
      <point x="532" y="1540" type="curve" name="av01"/>
      <point x="367" y="1540" type="line"/>
      <point x="178" y="1284"/>
      <point x="75" y="962"/>
      <point x="75" y="625" type="curve" smooth="yes" name="dh01"/>
      <point x="75" y="288"/>
      <point x="178" y="-34"/>
      <point x="367" y="-289" type="curve"/>
    </contour>
  </outline>
</glyph>
<glyph name="parenright" format="1">
  <advance width="607"/>
  <unicode hex="0029"/>
  <outline>
    <contour>
      <point x="240" y="-289" type="line"/>
      <point x="429" y="-34"/>
      <point x="532" y="288"/>
      <point x="532" y="625" type="curve" smooth="yes" name="dh01"/>
      <point x="532" y="962"/>
      <point x="429" y="1284"/>
      <point x="240" y="1540" type="curve"/>
      <point x="75" y="1540" type="line" name="av01"/>
      <point x="277" y="1277"/>
      <point x="386" y="956"/>
      <point x="386" y="626" type="curve" smooth="yes" name="dh02"/>
      <point x="386" y="297"/>
      <point x="277" y="-25"/>
      <point x="75" y="-289" type="curve" name="av02"/>
    </contour>
  </outline>
</glyph>
<glyph name="slash" format="1">
  <advance width="711"/>
  <unicode hex="002F"/>
  <outline>
    <contour>
      <point x="59" y="-20" type="line" name="av01"/>
      <point x="696" y="1520" type="line" name="at01"/>
      <point x="652" y="1520" type="line"/>
      <point x="15" y="-20" type="line"/>
    </contour>
  </outline>
</glyph>
<glyph name="semicolon" format="1">
  <advance width="471"/>
  <unicode hex="003B"/>
  <outline>
    <contour>
      <point x="258.844" y="780" type="curve" smooth="yes"/>
      <point x="315.491" y="780"/>
      <point x="359.422" y="822.775"/>
      <point x="359.422" y="879.422" type="curve" smooth="yes"/>
      <point x="359.422" y="934.913"/>
      <point x="315.491" y="980"/>
      <point x="258.844" y="980" type="curve" smooth="yes"/>
      <point x="202.197" y="980"/>
      <point x="160.578" y="934.913"/>
      <point x="160.578" y="879.422" type="curve" smooth="yes"/>
      <point x="160.578" y="822.775"/>
      <point x="202.197" y="780"/>
    </contour>
    <contour>
      <point x="237" y="-240" type="line"/>
      <point x="346" y="180" type="line"/>
      <point x="195" y="180" type="line" name="av01"/>
      <point x="115" y="-240" type="line"/>
    </contour>
  </outline>
</glyph>
<glyph name="question" format="1">
  <advance width="928"/>
  <unicode hex="003F"/>
  <outline>
    <contour>
      <point x="131" y="1358" type="line"/>
      <point x="222" y="1432"/>
      <point x="331" y="1474"/>
      <point x="430" y="1474" type="curve" smooth="yes"/>
      <point x="589" y="1474"/>
      <point x="695" y="1364"/>
      <point x="695" y="1200" type="curve" smooth="yes"/>
      <point x="695" y="1083"/>
      <point x="641" y="1016"/>
      <point x="579" y="938" type="curve" smooth="yes"/>
      <point x="493" y="831"/>
      <point x="392" y="703"/>
      <point x="392" y="401" type="curve"/>
      <point x="435" y="401" type="line"/>
      <point x="435" y="674"/>
      <point x="561" y="784"/>
      <point x="675" y="883" type="curve" smooth="yes"/>
      <point x="768" y="964"/>
      <point x="853" y="1039"/>
      <point x="853" y="1189" type="curve" smooth="yes"/>
      <point x="853" y="1391"/>
      <point x="701" y="1530"/>
      <point x="481" y="1530" type="curve" smooth="yes"/>
      <point x="353" y="1530"/>
      <point x="221" y="1483"/>
      <point x="105" y="1395" type="curve"/>
    </contour>
    <contour>
      <point x="414.078" y="-20" type="curve" smooth="yes"/>
      <point x="473.038" y="-20"/>
      <point x="513.5" y="20.4624"/>
      <point x="513.5" y="79.422" type="curve" smooth="yes"/>
      <point x="513.5" y="138.382"/>
      <point x="471.882" y="180"/>
      <point x="412.922" y="180" type="curve" smooth="yes"/>
      <point x="353.962" y="180"/>
      <point x="313.5" y="138.382"/>
      <point x="313.5" y="79.422" type="curve" smooth="yes"/>
      <point x="313.5" y="20.4624"/>
      <point x="355.118" y="-20"/>
    </contour>
  </outline>
</glyph>
<glyph name="h" format="1">
  <advance width="1226"/>
  <unicode hex="0068"/>
  <outline>
    <contour>
      <point x="155" y="0" type="line"/>
      <point x="319" y="0" type="line"/>
      <point x="319" y="611" type="line" smooth="yes"/>
      <point x="319" y="822"/>
      <point x="435" y="951"/>
      <point x="626" y="951" type="curve" smooth="yes"/>
      <point x="815" y="951"/>
      <point x="927" y="825"/>
      <point x="927" y="611" type="curve" smooth="yes"/>
      <point x="927" y="0" type="line"/>
      <point x="1091" y="0" type="line"/>
      <point x="1091" y="571" type="line" smooth="yes"/>
      <point x="1091" y="854"/>
      <point x="939" y="1020"/>
      <point x="684" y="1020" type="curve" smooth="yes"/>
      <point x="512" y="1020"/>
      <point x="387" y="944"/>
      <point x="319" y="802" type="curve"/>
      <point x="319" y="1500" type="line"/>
      <point x="155" y="1500" type="line"/>
    </contour>
  </outline>
</glyph>
<glyph name="p" format="1">
  <advance width="1295"/>
  <unicode hex="0070"/>
  <outline>
    <contour>
      <point x="319" y="-500" type="line"/>
      <point x="319" y="247" type="line"/>
      <point x="397" y="85"/>
      <point x="553" y="-20"/>
      <point x="742" y="-20" type="curve" smooth="yes"/>
      <point x="1014" y="-20"/>
      <point x="1210" y="197"/>
      <point x="1210" y="500" type="curve" smooth="yes"/>
      <point x="1210" y="803"/>
      <point x="1014" y="1020"/>
      <point x="742" y="1020" type="curve" smooth="yes"/>
      <point x="550" y="1020"/>
      <point x="393" y="912"/>
      <point x="316" y="745" type="curve"/>
      <point x="301" y="1000" type="line"/>
      <point x="155" y="1000" type="line"/>
      <point x="155" y="-500" type="line"/>
    </contour>
    <contour>
      <point x="682" y="48" type="curve" smooth="yes"/>
      <point x="483" y="48"/>
      <point x="337" y="210"/>
      <point x="319" y="443" type="curve"/>
      <point x="319" y="542" type="line"/>
      <point x="337" y="779"/>
      <point x="486" y="952"/>
      <point x="682" y="952" type="curve" smooth="yes"/>
      <point x="889" y="952"/>
      <point x="1042" y="757"/>
      <point x="1042" y="492" type="curve" smooth="yes"/>
      <point x="1042" y="231"/>
      <point x="894" y="48"/>
    </contour>
  </outline>
</glyph>
<glyph name="w" format="1">
  <advance width="1567"/>
  <unicode hex="0077"/>
  <outline>
    <contour>
      <point x="1148" y="0" type="line"/>
      <point x="1512" y="1000" type="line"/>
      <point x="1470" y="1000" type="line"/>
      <point x="1181" y="190" type="line"/>
      <point x="877" y="1000" type="line"/>
      <point x="814" y="1000" type="line"/>
      <point x="524" y="192" type="line"/>
      <point x="241" y="1000" type="line"/>
      <point x="55" y="1000" type="line"/>
      <point x="429" y="0" type="line"/>
      <point x="492" y="0" type="line"/>
      <point x="780" y="806" type="line"/>
      <point x="1084" y="0" type="line"/>
    </contour>
  </outline>
</glyph>
<glyph name="ordfeminine" format="1">
  <advance width="839"/>
  <unicode hex="00AA"/>
  <outline>
    <contour>
      <point x="684" y="811" type="line" name="n0"/>
      <point x="684" y="1236" type="line" smooth="yes" name="n1"/>
      <point x="684" y="1414"/>
      <point x="579" y="1520"/>
      <point x="404" y="1520" type="curve" smooth="yes"/>
      <point x="312" y="1520"/>
      <point x="224" y="1490"/>
      <point x="152" y="1434" type="curve" name="n7"/>
      <point x="176" y="1401" type="line"/>
      <point x="232" y="1446"/>
      <point x="304" y="1472"/>
      <point x="372" y="1472" type="curve" smooth="yes"/>
      <point x="503" y="1472"/>
      <point x="582" y="1378"/>
      <point x="582" y="1220" type="curve" smooth="yes" name="n14"/>
      <point x="582" y="1184" type="line"/>
      <point x="527" y="1215"/>
      <point x="463" y="1231" name="n16.1"/>
      <point x="393" y="1231" type="curve" smooth="yes" name="n17"/>
      <point x="226" y="1231" name="n18"/>
      <point x="105" y="1139" name="n19"/>
      <point x="105" y="1011" type="curve" smooth="yes" name="n20"/>
      <point x="105" y="891" name="n21"/>
      <point x="212" y="800" name="n22"/>
      <point x="354" y="800" type="curve" smooth="yes" name="n23"/>
      <point x="454" y="800"/>
      <point x="537" y="844"/>
      <point x="584" y="922" type="curve"/>
      <point x="592" y="811" type="line" name="n16"/>
    </contour>
    <contour>
      <point x="377" y="850" type="curve" smooth="yes"/>
      <point x="278" y="850"/>
      <point x="209" y="916"/>
      <point x="209" y="1011" type="curve" smooth="yes"/>
      <point x="209" y="1118"/>
      <point x="296" y="1194"/>
      <point x="417" y="1194" type="curve" smooth="yes"/>
      <point x="474" y="1194"/>
      <point x="531" y="1176"/>
      <point x="582" y="1144" type="curve"/>
      <point x="582" y="1000" type="line" smooth="yes" name="n15"/>
      <point x="582" y="924"/>
      <point x="482" y="850"/>
    </contour>
  </outline>
</glyph>
<glyph name="periodcentered" format="1">
  <advance width="463"/>
  <unicode hex="00B7"/>
  <outline>
    <contour>
      <point x="230.922" y="426.5" type="curve" smooth="yes"/>
      <point x="289.882" y="426.5"/>
      <point x="331.5" y="466.962"/>
      <point x="331.5" y="525.922" type="curve" smooth="yes"/>
      <point x="331.5" y="584.882"/>
      <point x="289.882" y="626.5"/>
      <point x="230.922" y="626.5" type="curve" smooth="yes"/>
      <point x="171.962" y="626.5"/>
      <point x="131.5" y="584.882"/>
      <point x="131.5" y="525.922" type="curve" smooth="yes"/>
      <point x="131.5" y="466.962"/>
      <point x="171.962" y="426.5"/>
    </contour>
  </outline>
</glyph>
<glyph name="Atilde" format="1">
  <advance width="1439"/>
  <unicode hex="00C3"/>
  <outline>
    <contour>
      <point x="1053" y="1947" type="curve"/>
      <point x="980" y="1947" type="line"/>
      <point x="969" y="1873"/>
      <point x="930" y="1833"/>
      <point x="869" y="1833" type="curve" smooth="yes"/>
      <point x="819" y="1833"/>
      <point x="783" y="1859"/>
      <point x="745" y="1888" type="curve" smooth="yes"/>
      <point x="701" y="1921"/>
      <point x="653" y="1957"/>
      <point x="574" y="1957" type="curve" smooth="yes"/>
      <point x="463" y="1957"/>
      <point x="398" y="1886"/>
      <point x="386" y="1752" type="curve"/>
      <point x="460" y="1752" type="line"/>
      <point x="471" y="1826"/>
      <point x="513" y="1868"/>
      <point x="576" y="1868" type="curve" smooth="yes"/>
      <point x="627" y="1868"/>
      <point x="663" y="1841"/>
      <point x="701" y="1811" type="curve" smooth="yes"/>
      <point x="753" y="1770"/>
      <point x="796" y="1742"/>
      <point x="865" y="1742" type="curve" smooth="yes"/>
      <point x="974" y="1742"/>
      <point x="1042" y="1816"/>
    </contour>
    <contour>
      <point x="93" y="0" type="line"/>
      <point x="297" y="481" type="line" name="dv01"/>
      <point x="998" y="481" type="line"/>
      <point x="1203" y="0" type="line"/>
      <point x="1394" y="0" type="line"/>
      <point x="756" y="1500" type="line"/>
      <point x="683" y="1500" type="line"/>
      <point x="45" y="0" type="line"/>
    </contour>
    <contour>
      <point x="315" y="523" type="line" name="dv02"/>
      <point x="648" y="1306" type="line"/>
      <point x="981" y="523" type="line"/>
    </contour>
  </outline>
</glyph>
<glyph name="Aring" format="1">
  <advance width="1439"/>
  <unicode hex="00C5"/>
  <outline>
    <contour>
      <point x="720" y="1596" type="curve" smooth="yes"/>
      <point x="847" y="1596"/>
      <point x="931" y="1679"/>
      <point x="931" y="1803" type="curve" smooth="yes"/>
      <point x="931" y="1927"/>
      <point x="847" y="2010"/>
      <point x="720" y="2010" type="curve" smooth="yes"/>
      <point x="593" y="2010"/>
      <point x="509" y="1927"/>
      <point x="509" y="1803" type="curve" smooth="yes"/>
      <point x="509" y="1679"/>
      <point x="593" y="1596"/>
    </contour>
    <contour>
      <point x="720" y="1672" type="curve" smooth="yes"/>
      <point x="643" y="1672"/>
      <point x="591" y="1724"/>
      <point x="591" y="1803" type="curve" smooth="yes"/>
      <point x="591" y="1882"/>
      <point x="643" y="1934"/>
      <point x="720" y="1934" type="curve" smooth="yes"/>
      <point x="797" y="1934"/>
      <point x="848" y="1882"/>
      <point x="848" y="1803" type="curve" smooth="yes"/>
      <point x="848" y="1724"/>
      <point x="797" y="1672"/>
    </contour>
    <contour>
      <point x="93" y="0" type="line"/>
      <point x="297" y="481" type="line" name="dv01"/>
      <point x="999" y="481" type="line"/>
      <point x="1203" y="0" type="line"/>
      <point x="1394" y="0" type="line"/>
      <point x="756" y="1500" type="line"/>
      <point x="683" y="1500" type="line"/>
      <point x="45" y="0" type="line"/>
    </contour>
    <contour>
      <point x="315" y="523" type="line" name="dv02"/>
      <point x="648" y="1306" type="line"/>
      <point x="981" y="523" type="line"/>
    </contour>
  </outline>
</glyph>
<glyph name="Ccedilla" format="1">
  <advance width="1516"/>
  <unicode hex="00C7"/>
  <outline>
    <contour>
      <point x="1411" y="194" type="curve"/>
      <point x="1380" y="224" type="line"/>
      <point x="1256" y="96"/>
      <point x="1080" y="19"/>
      <point x="891" y="19" type="curve" smooth="yes" name="ih01"/>
      <point x="518" y="19"/>
      <point x="255" y="321"/>
      <point x="255" y="751" type="curve" smooth="yes"/>
      <point x="255" y="1180"/>
      <point x="518" y="1481"/>
      <point x="891" y="1481" type="curve" smooth="yes"/>
      <point x="1080" y="1481"/>
      <point x="1256" y="1404"/>
      <point x="1380" y="1276" type="curve"/>
      <point x="1411" y="1307" type="line"/>
      <point x="1271" y="1448"/>
      <point x="1075" y="1530"/>
      <point x="853" y="1530" type="curve" smooth="yes"/>
      <point x="404" y="1530"/>
      <point x="75" y="1200"/>
      <point x="75" y="750" type="curve" smooth="yes"/>
      <point x="75" y="310"/>
      <point x="390" y="-16"/>
      <point x="824" y="-30" type="curve"/>
      <point x="783" y="-135" type="line"/>
      <point x="793" y="-134"/>
      <point x="803" y="-134"/>
      <point x="812" y="-134" type="curve" smooth="yes"/>
      <point x="899" y="-134"/>
      <point x="955" y="-170"/>
      <point x="955" y="-231" type="curve" smooth="yes"/>
      <point x="955" y="-293"/>
      <point x="897" y="-336"/>
      <point x="815" y="-336" type="curve" smooth="yes"/>
      <point x="783" y="-336"/>
      <point x="750" y="-330"/>
      <point x="719" y="-317" type="curve"/>
      <point x="694" y="-391" type="line"/>
      <point x="742" y="-408"/>
      <point x="788" y="-416"/>
      <point x="832" y="-416" type="curve" smooth="yes"/>
      <point x="954" y="-416"/>
      <point x="1043" y="-346"/>
      <point x="1043" y="-251" type="curve" smooth="yes"/>
      <point x="1043" y="-163"/>
      <point x="970" y="-104"/>
      <point x="865" y="-100" type="curve"/>
      <point x="894" y="-29" type="line"/>
      <point x="1099" y="-19"/>
      <point x="1280" y="61"/>
    </contour>
  </outline>
</glyph>
<glyph name="Oslash" format="1">
  <advance width="1708"/>
  <unicode hex="00D8"/>
  <outline>
    <contour>
      <point x="547" y="-50" type="line" name="av01"/>
      <point x="574" y="17" type="line"/>
      <point x="660" y="-13"/>
      <point x="753" y="-30"/>
      <point x="853" y="-30" type="curve" smooth="yes"/>
      <point x="1301" y="-30"/>
      <point x="1633" y="302"/>
      <point x="1633" y="750" type="curve" smooth="yes"/>
      <point x="1633" y="1082"/>
      <point x="1451" y="1349"/>
      <point x="1175" y="1466" type="curve"/>
      <point x="1204" y="1535" type="line" name="at01"/>
      <point x="1167" y="1550" type="line"/>
      <point x="1138" y="1481" type="line"/>
      <point x="1051" y="1513"/>
      <point x="954" y="1530"/>
      <point x="852" y="1530" type="curve" smooth="yes"/>
      <point x="404" y="1530"/>
      <point x="75" y="1200"/>
      <point x="75" y="750" type="curve" smooth="yes"/>
      <point x="75" y="415"/>
      <point x="258" y="146"/>
      <point x="537" y="31" type="curve"/>
      <point x="510" y="-35" type="line"/>
    </contour>
    <contour>
      <point x="564" y="95" type="line"/>
      <point x="376" y="215"/>
      <point x="255" y="456"/>
      <point x="255" y="751" type="curve" smooth="yes"/>
      <point x="255" y="1178"/>
      <point x="506" y="1488"/>
      <point x="852" y="1488" type="curve" smooth="yes"/>
      <point x="947" y="1488"/>
      <point x="1035" y="1465"/>
      <point x="1113" y="1422" type="curve"/>
    </contour>
    <contour>
      <point x="852" y="12" type="curve" smooth="yes"/>
      <point x="760" y="12"/>
      <point x="674" y="34"/>
      <point x="598" y="75" type="curve"/>
      <point x="1148" y="1401" type="line"/>
      <point x="1334" y="1280"/>
      <point x="1454" y="1042"/>
      <point x="1454" y="751" type="curve" smooth="yes"/>
      <point x="1454" y="325"/>
      <point x="1199" y="12"/>
    </contour>
  </outline>
</glyph>
<glyph name="Yacute" format="1">
  <advance width="1363"/>
  <unicode hex="00DD"/>
  <outline>
    <contour>
      <point x="724" y="1666" type="line"/>
      <point x="918" y="2000" type="line"/>
      <point x="761" y="2000" type="line"/>
      <point x="605" y="1666" type="line"/>
    </contour>
    <contour>
      <point x="783" y="0" type="line"/>
      <point x="783" y="684" type="line"/>
      <point x="1338" y="1500" type="line"/>
      <point x="1285" y="1500" type="line"/>
      <point x="760" y="727" type="line"/>
      <point x="235" y="1500" type="line"/>
      <point x="25" y="1500" type="line"/>
      <point x="607" y="641" type="line"/>
      <point x="607" y="0" type="line"/>
    </contour>
  </outline>
</glyph>
<glyph name="ntilde" format="1">
  <advance width="1226"/>
  <unicode hex="00F1"/>
  <outline>
    <contour>
      <point x="942" y="1447" type="curve"/>
      <point x="869" y="1447" type="line"/>
      <point x="858" y="1373"/>
      <point x="819" y="1333"/>
      <point x="758" y="1333" type="curve" smooth="yes"/>
      <point x="708" y="1333"/>
      <point x="672" y="1359"/>
      <point x="634" y="1388" type="curve" smooth="yes"/>
      <point x="590" y="1421"/>
      <point x="542" y="1457"/>
      <point x="463" y="1457" type="curve" smooth="yes"/>
      <point x="352" y="1457"/>
      <point x="287" y="1386"/>
      <point x="275" y="1252" type="curve"/>
      <point x="349" y="1252" type="line"/>
      <point x="360" y="1326"/>
      <point x="402" y="1368"/>
      <point x="465" y="1368" type="curve" smooth="yes"/>
      <point x="516" y="1368"/>
      <point x="552" y="1341"/>
      <point x="590" y="1311" type="curve" smooth="yes"/>
      <point x="642" y="1270"/>
      <point x="685" y="1242"/>
      <point x="754" y="1242" type="curve" smooth="yes"/>
      <point x="863" y="1242"/>
      <point x="931" y="1316"/>
    </contour>
    <contour>
      <point x="1091" y="0" type="line"/>
      <point x="1091" y="571" type="line" smooth="yes"/>
      <point x="1091" y="854"/>
      <point x="939" y="1020"/>
      <point x="684" y="1020" type="curve" smooth="yes"/>
      <point x="501" y="1020"/>
      <point x="371" y="934"/>
      <point x="307" y="774" type="curve"/>
      <point x="298" y="1000" type="line"/>
      <point x="155" y="1000" type="line"/>
      <point x="155" y="0" type="line"/>
      <point x="319" y="0" type="line"/>
      <point x="319" y="611" type="line" smooth="yes"/>
      <point x="319" y="822"/>
      <point x="435" y="951"/>
      <point x="626" y="951" type="curve" smooth="yes"/>
      <point x="815" y="951"/>
      <point x="927" y="825"/>
      <point x="927" y="611" type="curve" smooth="yes"/>
      <point x="927" y="0" type="line"/>
    </contour>
  </outline>
</glyph>
<glyph name="oacute" format="1">
  <advance width="1215"/>
  <unicode hex="00F3"/>
  <outline>
    <contour>
      <point x="650" y="1166" type="line"/>
      <point x="844" y="1500" type="line"/>
      <point x="687" y="1500" type="line"/>
      <point x="531" y="1166" type="line"/>
    </contour>
    <contour>
      <point x="608" y="-20" type="curve" smooth="yes"/>
      <point x="908" y="-20"/>
      <point x="1130" y="201"/>
      <point x="1130" y="500" type="curve" smooth="yes"/>
      <point x="1130" y="797"/>
      <point x="906" y="1020"/>
      <point x="608" y="1020" type="curve" smooth="yes"/>
      <point x="309" y="1020"/>
      <point x="85" y="798"/>
      <point x="85" y="500" type="curve" smooth="yes"/>
      <point x="85" y="203"/>
      <point x="309" y="-20"/>
    </contour>
    <contour>
      <point x="608" y="18" type="curve" smooth="yes"/>
      <point x="401" y="18"/>
      <point x="253" y="213"/>
      <point x="253" y="500" type="curve" smooth="yes"/>
      <point x="253" y="788"/>
      <point x="401" y="982"/>
      <point x="608" y="982" type="curve" smooth="yes"/>
      <point x="814" y="982"/>
      <point x="963" y="788"/>
      <point x="963" y="500" type="curve" smooth="yes"/>
      <point x="963" y="213"/>
      <point x="814" y="18"/>
    </contour>
  </outline>
</glyph>
<glyph name="Amacron" format="1">
  <advance width="1439"/>
  <unicode hex="0100"/>
  <outline>
    <contour>
      <point x="1044" y="1792" type="line" name="av02"/>
      <point x="1044" y="1893" type="line"/>
      <point x="395" y="1893" type="line" name="av01"/>
      <point x="395" y="1792" type="line"/>
    </contour>
    <contour>
      <point x="93" y="0" type="line"/>
      <point x="297" y="481" type="line" name="dv01"/>
      <point x="998" y="481" type="line"/>
      <point x="1202" y="0" type="line"/>
      <point x="1394" y="0" type="line"/>
      <point x="755" y="1500" type="line"/>
      <point x="683" y="1500" type="line"/>
      <point x="45" y="0" type="line"/>
    </contour>
    <contour>
      <point x="315" y="523" type="line" name="dv02"/>
      <point x="647" y="1306" type="line"/>
      <point x="980" y="523" type="line"/>
    </contour>
  </outline>
</glyph>
<glyph name="Ccaron" format="1">
  <advance width="1516"/>
  <unicode hex="010C"/>
  <outline>
    <contour>
      <point x="915" y="1666" type="line" name="at01"/>
      <point x="1128" y="2000" type="line"/>
      <point x="1005" y="2000" type="line" name="av01"/>
      <point x="843" y="1737" type="line"/>
      <point x="681" y="2000" type="line" name="av01.1"/>
      <point x="558" y="2000" type="line"/>
      <point x="770" y="1666" type="line" name="at01.1"/>
    </contour>
    <contour>
      <point x="1411" y="194" type="curve"/>
      <point x="1380" y="224" type="line"/>
      <point x="1256" y="96"/>
      <point x="1080" y="19"/>
      <point x="891" y="19" type="curve" smooth="yes"/>
      <point x="518" y="19"/>
      <point x="255" y="321"/>
      <point x="255" y="751" type="curve" smooth="yes"/>
      <point x="255" y="1180"/>
      <point x="518" y="1481"/>
      <point x="891" y="1481" type="curve" smooth="yes"/>
      <point x="1080" y="1481"/>
      <point x="1256" y="1404"/>
      <point x="1380" y="1276" type="curve"/>
      <point x="1411" y="1307" type="line"/>
      <point x="1271" y="1448"/>
      <point x="1075" y="1530"/>
      <point x="853" y="1530" type="curve" smooth="yes"/>
      <point x="404" y="1530"/>
      <point x="75" y="1200"/>
      <point x="75" y="750" type="curve" smooth="yes"/>
      <point x="75" y="301"/>
      <point x="404" y="-30"/>
      <point x="853" y="-30" type="curve" smooth="yes"/>
      <point x="1075" y="-30"/>
      <point x="1271" y="52"/>
    </contour>
  </outline>
</glyph>
<glyph name="ccaron" format="1">
  <advance width="1032"/>
  <unicode hex="010D"/>
  <outline>
    <contour>
      <point x="664" y="1166" type="line" name="at01"/>
      <point x="876" y="1500" type="line"/>
      <point x="754" y="1500" type="line" name="av01"/>
      <point x="591" y="1237" type="line"/>
      <point x="429" y="1500" type="line" name="av01.1"/>
      <point x="306" y="1500" type="line"/>
      <point x="518" y="1166" type="line" name="at01.1"/>
    </contour>
    <contour>
      <point x="967" y="125" type="curve"/>
      <point x="940" y="154" type="line"/>
      <point x="860" y="72"/>
      <point x="752" y="26"/>
      <point x="640" y="26" type="curve" smooth="yes"/>
      <point x="407" y="26"/>
      <point x="243" y="222"/>
      <point x="243" y="500" type="curve" smooth="yes"/>
      <point x="243" y="778"/>
      <point x="407" y="974"/>
      <point x="640" y="974" type="curve" smooth="yes"/>
      <point x="752" y="974"/>
      <point x="859" y="929"/>
      <point x="940" y="846" type="curve"/>
      <point x="967" y="875" type="line"/>
      <point x="871" y="969"/>
      <point x="741" y="1020"/>
      <point x="598" y="1020" type="curve" smooth="yes"/>
      <point x="299" y="1020"/>
      <point x="75" y="797"/>
      <point x="75" y="500" type="curve" smooth="yes"/>
      <point x="75" y="203"/>
      <point x="299" y="-20"/>
      <point x="598" y="-20" type="curve" smooth="yes"/>
      <point x="741" y="-20"/>
      <point x="871" y="31"/>
    </contour>
  </outline>
</glyph>
<glyph name="hbar" format="1">
  <advance width="1224"/>
  <unicode hex="0127"/>
  <outline>
    <contour>
      <point x="665" y="1240" type="line" name="av02"/>
      <point x="665" y="1278" type="line"/>
      <point x="317" y="1278" type="line"/>
      <point x="317" y="1500" type="line"/>
      <point x="153" y="1500" type="line"/>
      <point x="153" y="1278" type="line"/>
      <point x="15" y="1278" type="line" name="av01"/>
      <point x="15" y="1240" type="line"/>
      <point x="153" y="1240" type="line"/>
      <point x="153" y="0" type="line"/>
      <point x="317" y="0" type="line"/>
      <point x="317" y="611" type="line" smooth="yes"/>
      <point x="317" y="822"/>
      <point x="434" y="951"/>
      <point x="625" y="951" type="curve" smooth="yes"/>
      <point x="814" y="951"/>
      <point x="925" y="825"/>
      <point x="925" y="611" type="curve" smooth="yes"/>
      <point x="925" y="0" type="line"/>
      <point x="1089" y="0" type="line"/>
      <point x="1089" y="571" type="line" smooth="yes"/>
      <point x="1089" y="854"/>
      <point x="937" y="1020"/>
      <point x="682" y="1020" type="curve" smooth="yes"/>
      <point x="510" y="1020"/>
      <point x="385" y="944"/>
      <point x="317" y="802" type="curve"/>
      <point x="317" y="1240" type="line"/>
    </contour>
  </outline>
</glyph>
<glyph name="Imacron" format="1">
  <advance width="487"/>
  <unicode hex="012A"/>
  <outline>
    <contour>
      <point x="568" y="1792" type="line" name="av02"/>
      <point x="-81" y="1792" type="line"/>
      <point x="-81" y="1893" type="line" name="av01"/>
      <point x="568" y="1893" type="line"/>
    </contour>
    <contour>
      <point x="332" y="1500" type="line" name="at01"/>
      <point x="332" y="0" type="line" name="ab01"/>
      <point x="156" y="0" type="line" name="dh01"/>
      <point x="156" y="1500" type="line"/>
    </contour>
  </outline>
</glyph>
<glyph name="iogonek" format="1">
  <advance width="483"/>
  <unicode hex="012F"/>
  <outline>
    <contour>
      <point x="240.95" y="1315" type="curve" smooth="yes"/>
      <point x="297.8" y="1315"/>
      <point x="341.5" y="1358.7"/>
      <point x="341.5" y="1414.45" type="curve" smooth="yes"/>
      <point x="341.5" y="1470.2"/>
      <point x="297.8" y="1515"/>
      <point x="240.95" y="1515" type="curve" smooth="yes"/>
      <point x="185.2" y="1515"/>
      <point x="141.5" y="1470.2"/>
      <point x="141.5" y="1414.45" type="curve" smooth="yes"/>
      <point x="141.5" y="1358.7"/>
      <point x="185.2" y="1315"/>
    </contour>
    <contour>
      <point x="323" y="0" type="line"/>
      <point x="323" y="1000" type="line"/>
      <point x="159" y="1000" type="line"/>
      <point x="159" y="0" type="line"/>
      <point x="249.199" y="0" type="line" name="ab01"/>
      <point x="122.938" y="-44.6378"/>
      <point x="42" y="-136.11"/>
      <point x="42" y="-237" type="curve" smooth="yes"/>
      <point x="42" y="-337"/>
      <point x="125" y="-416"/>
      <point x="258" y="-416" type="curve" name="av01"/>
      <point x="268" y="-326" type="line"/>
      <point x="171" y="-320"/>
      <point x="123" y="-269"/>
      <point x="123" y="-204" type="curve" smooth="yes"/>
      <point x="123" y="-125.903"/>
      <point x="190.873" y="-37.6009"/>
      <point x="289.847" y="0" type="curve"/>
    </contour>
  </outline>
</glyph>
<glyph name="dotlessi" format="1">
  <advance width="474"/>
  <unicode hex="0131"/>
  <outline>
    <contour>
      <point x="319" y="0" type="line"/>
      <point x="319" y="1000" type="line"/>
      <point x="155" y="1000" type="line"/>
      <point x="155" y="0" type="line"/>
    </contour>
  </outline>
</glyph>
<glyph name="jcircumflex" format="1">
  <advance width="467"/>
  <unicode hex="0135"/>
  <outline>
    <contour>
      <point x="513" y="1166" type="line"/>
      <point x="300" y="1500" type="line" name="at01"/>
      <point x="154" y="1500" type="line" name="at01.1"/>
      <point x="-58" y="1166" type="line"/>
      <point x="65" y="1166" type="line" name="av01"/>
      <point x="227" y="1429" type="line"/>
      <point x="390" y="1166" type="line" name="av01.1"/>
    </contour>
    <contour>
      <point x="-149" y="-506" type="line"/>
      <point x="-107" y="-515"/>
      <point x="-68" y="-520"/>
      <point x="-31" y="-520" type="curve" smooth="yes"/>
      <point x="183" y="-520"/>
      <point x="312" y="-379"/>
      <point x="312" y="-140" type="curve" smooth="yes"/>
      <point x="312" y="1000" type="line"/>
      <point x="148" y="1000" type="line"/>
      <point x="148" y="-188" type="line" smooth="yes"/>
      <point x="148" y="-364"/>
      <point x="53" y="-475"/>
      <point x="-90" y="-475" type="curve" smooth="yes"/>
      <point x="-107" y="-475"/>
      <point x="-125" y="-473"/>
      <point x="-144" y="-470" type="curve"/>
    </contour>
  </outline>
</glyph>
<glyph name="lacute" format="1">
  <advance width="485"/>
  <unicode hex="013A"/>
  <outline>
    <contour>
      <point x="300" y="1666" type="line"/>
      <point x="495" y="2000" type="line"/>
      <point x="338" y="2000" type="line"/>
      <point x="181" y="1666" type="line"/>
    </contour>
    <contour>
      <point x="329" y="0" type="line"/>
      <point x="329" y="1540" type="line" name="av01"/>
      <point x="155" y="1540" type="line" name="dh01"/>
      <point x="155" y="0" type="line" name="ab01"/>
    </contour>
  </outline>
</glyph>
<glyph name="Lcaron" format="1">
  <advance width="1150"/>
  <unicode hex="013D"/>
  <outline>
    <contour>
      <point x="798" y="1050" type="line"/>
      <point x="923" y="1500" type="line"/>
      <point x="802" y="1500" type="line" name="av01.1"/>
      <point x="701" y="1050" type="line"/>
    </contour>
    <contour>
      <point x="1075" y="0" type="line"/>
      <point x="1075" y="42" type="line"/>
      <point x="331" y="42" type="line"/>
      <point x="331" y="1500" type="line"/>
      <point x="155" y="1500" type="line"/>
      <point x="155" y="0" type="line"/>
    </contour>
  </outline>
</glyph>
<glyph name="Nacute" format="1">
  <advance width="1548"/>
  <unicode hex="0143"/>
  <outline>
    <contour>
      <point x="836" y="1666" type="line"/>
      <point x="1030" y="2000" type="line"/>
      <point x="873" y="2000" type="line"/>
      <point x="717" y="1666" type="line"/>
    </contour>
    <contour>
      <point x="1393" y="0" type="line"/>
      <point x="1393" y="1500" type="line"/>
      <point x="1349" y="1500" type="line"/>
      <point x="1349" y="244" type="line"/>
      <point x="216" y="1500" type="line"/>
      <point x="155" y="1500" type="line"/>
      <point x="155" y="0" type="line"/>
      <point x="199" y="0" type="line"/>
      <point x="199" y="1256" type="line"/>
      <point x="1332" y="0" type="line"/>
    </contour>
  </outline>
</glyph>
<glyph name="Eng" format="1">
  <advance width="1548"/>
  <unicode hex="014A"/>
  <outline>
    <contour>
      <point x="972" y="-360" type="line"/>
      <point x="1255" y="-360"/>
      <point x="1393" y="-221"/>
      <point x="1393" y="64" type="curve" smooth="yes"/>
      <point x="1393" y="1500" type="line"/>
      <point x="1349" y="1500" type="line"/>
      <point x="1349" y="538.32" type="line"/>
      <point x="1351.65" y="238.415" type="line"/>
      <point x="1345.64" y="235.45" type="line"/>
      <point x="1256.14" y="339.45"/>
      <point x="1204.7" y="403.95"/>
      <point x="1112.8" y="505.85" type="curve" smooth="yes"/>
      <point x="216" y="1500" type="line"/>
      <point x="155" y="1500" type="line"/>
      <point x="155" y="0" type="line"/>
      <point x="199" y="0" type="line"/>
      <point x="199" y="1037.98" type="line"/>
      <point x="196.935" y="1263.76" type="line"/>
      <point x="204.303" y="1263.76" type="line"/>
      <point x="355.056" y="1082.99" type="line"/>
      <point x="889.55" y="490.45" type="line" smooth="yes"/>
      <point x="1059.99" y="301.545"/>
      <point x="1171.37" y="206.776"/>
      <point x="1348.49" y="29.537" type="curve"/>
      <point x="1341.17" y="-199.486"/>
      <point x="1213.49" y="-318"/>
      <point x="972" y="-318" type="curve"/>
    </contour>
  </outline>
</glyph>
<glyph name="Obreve" format="1">
  <advance width="1709"/>
  <unicode hex="014E"/>
  <outline>
    <contour>
      <point x="1163" y="2000" type="curve" name="at01"/>
      <point x="1061" y="2000" type="line" name="ah01"/>
      <point x="1061" y="1866"/>
      <point x="975" y="1773"/>
      <point x="854" y="1773" type="curve" smooth="yes"/>
      <point x="733" y="1773"/>
      <point x="648" y="1866"/>
      <point x="648" y="2000" type="curve" name="sh01"/>
      <point x="545" y="2000" type="line" name="at02"/>
      <point x="545" y="1818"/>
      <point x="674" y="1685"/>
      <point x="854" y="1685" type="curve" smooth="yes" name="av01"/>
      <point x="1034" y="1685"/>
      <point x="1163" y="1818"/>
    </contour>
    <contour>
      <point x="853" y="-30" type="curve" smooth="yes"/>
      <point x="1301" y="-30"/>
      <point x="1634" y="302"/>
      <point x="1634" y="750" type="curve" smooth="yes"/>
      <point x="1634" y="1198"/>
      <point x="1301" y="1530"/>
      <point x="852" y="1530" type="curve" smooth="yes"/>
      <point x="404" y="1530"/>
      <point x="75" y="1200"/>
      <point x="75" y="750" type="curve" smooth="yes"/>
      <point x="75" y="300"/>
      <point x="405" y="-30"/>
    </contour>
    <contour>
      <point x="852" y="12" type="curve" smooth="yes"/>
      <point x="506" y="12"/>
      <point x="255" y="324"/>
      <point x="255" y="751" type="curve" smooth="yes"/>
      <point x="255" y="1178"/>
      <point x="506" y="1488"/>
      <point x="852" y="1488" type="curve" smooth="yes"/>
      <point x="1199" y="1488"/>
      <point x="1453" y="1176"/>
      <point x="1453" y="751" type="curve" smooth="yes"/>
      <point x="1453" y="325"/>
      <point x="1198" y="12"/>
    </contour>
  </outline>
</glyph>
<glyph name="ohungarumlaut" format="1">
  <advance width="1215"/>
  <unicode hex="0151"/>
  <outline>
    <contour>
      <point x="460" y="1166" type="line"/>
      <point x="655" y="1500" type="line"/>
      <point x="498" y="1500" type="line"/>
      <point x="341" y="1166" type="line"/>
    </contour>
    <contour>
      <point x="837" y="1166" type="line"/>
      <point x="1032" y="1500" type="line"/>
      <point x="875" y="1500" type="line"/>
      <point x="718" y="1166" type="line"/>
    </contour>
    <contour>
      <point x="608" y="-20" type="curve" smooth="yes"/>
      <point x="908" y="-20"/>
      <point x="1130" y="201"/>
      <point x="1130" y="500" type="curve" smooth="yes"/>
      <point x="1130" y="797"/>
      <point x="906" y="1020"/>
      <point x="608" y="1020" type="curve" smooth="yes"/>
      <point x="309" y="1020"/>
      <point x="85" y="798"/>
      <point x="85" y="500" type="curve" smooth="yes"/>
      <point x="85" y="203"/>
      <point x="309" y="-20"/>
    </contour>
    <contour>
      <point x="608" y="18" type="curve" smooth="yes"/>
      <point x="401" y="18"/>
      <point x="253" y="213"/>
      <point x="253" y="500" type="curve" smooth="yes"/>
      <point x="253" y="788"/>
      <point x="401" y="982"/>
      <point x="608" y="982" type="curve" smooth="yes"/>
      <point x="814" y="982"/>
      <point x="963" y="788"/>
      <point x="963" y="500" type="curve" smooth="yes"/>
      <point x="963" y="213"/>
      <point x="814" y="18"/>
    </contour>
  </outline>
</glyph>
<glyph name="tbar" format="1">
  <advance width="826"/>
  <unicode hex="0167"/>
  <outline>
    <contour>
      <point x="723" y="556" type="line" name="av02"/>
      <point x="723" y="594" type="line"/>
      <point x="424" y="594" type="line"/>
      <point x="424" y="962" type="line"/>
      <point x="723" y="962" type="line"/>
      <point x="723" y="1000" type="line"/>
      <point x="424" y="1000" type="line"/>
      <point x="424" y="1250" type="line"/>
      <point x="260" y="1250" type="line"/>
      <point x="260" y="1000" type="line"/>
      <point x="85" y="1000" type="line"/>
      <point x="85" y="962" type="line"/>
      <point x="260" y="962" type="line"/>
      <point x="260" y="594" type="line"/>
      <point x="86" y="594" type="line" name="av01"/>
      <point x="86" y="556" type="line"/>
      <point x="260" y="556" type="line"/>
      <point x="260" y="297" type="line" smooth="yes"/>
      <point x="260" y="100"/>
      <point x="366" y="-19"/>
      <point x="543" y="-19" type="curve" smooth="yes"/>
      <point x="605" y="-19"/>
      <point x="672" y="-4"/>
      <point x="741" y="24" type="curve"/>
      <point x="728" y="59" type="line"/>
      <point x="685" y="40"/>
      <point x="644" y="30"/>
      <point x="606" y="30" type="curve" smooth="yes"/>
      <point x="494" y="30"/>
      <point x="424" y="111"/>
      <point x="424" y="243" type="curve" smooth="yes"/>
      <point x="424" y="556" type="line"/>
    </contour>
  </outline>
</glyph>
<glyph name="utilde" format="1">
  <advance width="1206"/>
  <unicode hex="0169"/>
  <outline>
    <contour>
      <point x="936" y="1447" type="curve"/>
      <point x="863" y="1447" type="line"/>
      <point x="852" y="1373"/>
      <point x="813" y="1333"/>
      <point x="752" y="1333" type="curve" smooth="yes"/>
      <point x="702" y="1333"/>
      <point x="666" y="1359"/>
      <point x="628" y="1388" type="curve" smooth="yes"/>
      <point x="584" y="1421"/>
      <point x="536" y="1457"/>
      <point x="457" y="1457" type="curve" smooth="yes"/>
      <point x="346" y="1457"/>
      <point x="281" y="1386"/>
      <point x="269" y="1252" type="curve"/>
      <point x="343" y="1252" type="line"/>
      <point x="354" y="1326"/>
      <point x="396" y="1368"/>
      <point x="459" y="1368" type="curve" smooth="yes"/>
      <point x="510" y="1368"/>
      <point x="546" y="1341"/>
      <point x="584" y="1311" type="curve" smooth="yes"/>
      <point x="636" y="1270"/>
      <point x="679" y="1242"/>
      <point x="748" y="1242" type="curve" smooth="yes"/>
      <point x="857" y="1242"/>
      <point x="925" y="1316"/>
    </contour>
    <contour>
      <point x="1051" y="0" type="line"/>
      <point x="1051" y="1000" type="line"/>
      <point x="887" y="1000" type="line"/>
      <point x="887" y="389" type="line" smooth="yes"/>
      <point x="887" y="178"/>
      <point x="774" y="49"/>
      <point x="589" y="49" type="curve" smooth="yes"/>
      <point x="406" y="49"/>
      <point x="299" y="175"/>
      <point x="299" y="389" type="curve" smooth="yes"/>
      <point x="299" y="1000" type="line"/>
      <point x="135" y="1000" type="line"/>
      <point x="135" y="430" type="line" smooth="yes"/>
      <point x="135" y="147"/>
      <point x="283" y="-20"/>
      <point x="532" y="-20" type="curve" smooth="yes"/>
      <point x="710" y="-20"/>
      <point x="836" y="65"/>
      <point x="899" y="224" type="curve"/>
      <point x="907" y="0" type="line"/>
    </contour>
  </outline>
</glyph>
<glyph name="Ubreve" format="1">
  <advance width="1569"/>
  <unicode hex="016C"/>
  <outline>
    <contour>
      <point x="1093" y="2000" type="curve" name="at01"/>
      <point x="991" y="2000" type="line" name="ah01"/>
      <point x="991" y="1866"/>
      <point x="905" y="1773"/>
      <point x="784" y="1773" type="curve" smooth="yes"/>
      <point x="663" y="1773"/>
      <point x="578" y="1866"/>
      <point x="578" y="2000" type="curve" name="sh01"/>
      <point x="475" y="2000" type="line" name="at02"/>
      <point x="475" y="1818"/>
      <point x="604" y="1685"/>
      <point x="784" y="1685" type="curve" smooth="yes" name="av01"/>
      <point x="964" y="1685"/>
      <point x="1093" y="1818"/>
    </contour>
    <contour>
      <point x="1414" y="1500" type="line"/>
      <point x="1238" y="1500" type="line"/>
      <point x="1238" y="620" type="line" smooth="yes"/>
      <point x="1238" y="236"/>
      <point x="1068" y="12"/>
      <point x="784" y="12" type="curve" smooth="yes"/>
      <point x="501" y="12"/>
      <point x="331" y="236"/>
      <point x="331" y="620" type="curve" smooth="yes"/>
      <point x="331" y="1500" type="line"/>
      <point x="155" y="1500" type="line"/>
      <point x="155" y="663" type="line" smooth="yes"/>
      <point x="155" y="228"/>
      <point x="389" y="-30"/>
      <point x="784" y="-30" type="curve" smooth="yes"/>
      <point x="1179" y="-30"/>
      <point x="1414" y="228"/>
      <point x="1414" y="663" type="curve" smooth="yes"/>
    </contour>
  </outline>
</glyph>
<glyph name="scommaaccent" format="1">
  <advance width="890"/>
  <unicode hex="0219"/>
  <outline>
    <contour>
      <point x="105" y="87" type="line"/>
      <point x="206" y="18"/>
      <point x="324" y="-20"/>
      <point x="443" y="-20" type="curve" smooth="yes"/>
      <point x="659" y="-20"/>
      <point x="805" y="99"/>
      <point x="805" y="275" type="curve" smooth="yes"/>
      <point x="805" y="446"/>
      <point x="665" y="513"/>
      <point x="533" y="576" type="curve" smooth="yes"/>
      <point x="416" y="632"/>
      <point x="306" y="684"/>
      <point x="306" y="804" type="curve" smooth="yes"/>
      <point x="306" y="908"/>
      <point x="388" y="977"/>
      <point x="512" y="977" type="curve" smooth="yes"/>
      <point x="583" y="977"/>
      <point x="670" y="955"/>
      <point x="732" y="920" type="curve"/>
      <point x="749" y="956" type="line"/>
      <point x="662" y="998"/>
      <point x="568" y="1020"/>
      <point x="478" y="1020" type="curve" smooth="yes"/>
      <point x="276" y="1020"/>
      <point x="141" y="914"/>
      <point x="141" y="757" type="curve" smooth="yes"/>
      <point x="141" y="602"/>
      <point x="271" y="541"/>
      <point x="398" y="482" type="curve" smooth="yes"/>
      <point x="520" y="425"/>
      <point x="640" y="369"/>
      <point x="640" y="231" type="curve" smooth="yes"/>
      <point x="640" y="107"/>
      <point x="544" y="22"/>
      <point x="402" y="22" type="curve" smooth="yes"/>
      <point x="313" y="22"/>
      <point x="220" y="55"/>
      <point x="126" y="120" type="curve"/>
    </contour>
    <contour>
      <point x="388" y="-485" type="line"/>
      <point x="489" y="-432"/>
      <point x="554" y="-317"/>
      <point x="554" y="-191" type="curve" smooth="yes"/>
      <point x="554" y="-148"/>
      <point x="546" y="-106"/>
      <point x="531" y="-65" type="curve"/>
      <point x="422" y="-90" type="line"/>
      <point x="442" y="-126"/>
      <point x="451" y="-167"/>
      <point x="451" y="-208" type="curve" smooth="yes"/>
      <point x="451" y="-295"/>
      <point x="409" y="-383"/>
      <point x="337" y="-433" type="curve"/>
    </contour>
  </outline>
</glyph>
<glyph name="Tcommaaccent" format="1">
  <advance width="1233"/>
  <unicode hex="021A"/>
  <outline>
    <contour>
      <point x="704" y="0" type="line"/>
      <point x="704" y="1458" type="line"/>
      <point x="1198" y="1458" type="line"/>
      <point x="1198" y="1500" type="line"/>
      <point x="35" y="1500" type="line"/>
      <point x="35" y="1458" type="line"/>
      <point x="528" y="1458" type="line"/>
      <point x="528" y="0" type="line"/>
    </contour>
    <contour>
      <point x="525" y="-485" type="line"/>
      <point x="626" y="-432"/>
      <point x="691" y="-317"/>
      <point x="691" y="-191" type="curve" smooth="yes"/>
      <point x="691" y="-148"/>
      <point x="683" y="-106"/>
      <point x="668" y="-65" type="curve"/>
      <point x="559" y="-90" type="line"/>
      <point x="579" y="-126"/>
      <point x="588" y="-167"/>
      <point x="588" y="-208" type="curve" smooth="yes"/>
      <point x="588" y="-295"/>
      <point x="546" y="-383"/>
      <point x="474" y="-433" type="curve"/>
    </contour>
  </outline>
</glyph>
<glyph name="uni021B" format="1">
  <advance width="826"/>
  <unicode hex="021B"/>
  <outline>
    <contour>
      <point x="741" y="24" type="curve"/>
      <point x="727" y="59" type="line"/>
      <point x="684" y="40"/>
      <point x="643" y="30"/>
      <point x="605" y="30" type="curve" smooth="yes"/>
      <point x="493" y="30"/>
      <point x="424" y="111"/>
      <point x="424" y="243" type="curve" smooth="yes"/>
      <point x="424" y="962" type="line"/>
      <point x="722" y="962" type="line"/>
      <point x="722" y="1000" type="line"/>
      <point x="424" y="1000" type="line"/>
      <point x="424" y="1250" type="line"/>
      <point x="260" y="1250" type="line"/>
      <point x="260" y="1000" type="line"/>
      <point x="85" y="1000" type="line"/>
      <point x="85" y="962" type="line"/>
      <point x="260" y="962" type="line"/>
      <point x="260" y="297" type="line" smooth="yes"/>
      <point x="260" y="100"/>
      <point x="365" y="-19"/>
      <point x="542" y="-19" type="curve" smooth="yes"/>
      <point x="604" y="-19"/>
      <point x="672" y="-4"/>
    </contour>
    <contour>
      <point x="356" y="-485" type="line"/>
      <point x="457" y="-432"/>
      <point x="521" y="-317"/>
      <point x="521" y="-191" type="curve" smooth="yes"/>
      <point x="521" y="-148"/>
      <point x="514" y="-106"/>
      <point x="499" y="-65" type="curve"/>
      <point x="389" y="-90" type="line"/>
      <point x="409" y="-126"/>
      <point x="418" y="-167"/>
      <point x="418" y="-208" type="curve" smooth="yes"/>
      <point x="418" y="-295"/>
      <point x="377" y="-383"/>
      <point x="305" y="-433" type="curve"/>
    </contour>
  </outline>
</glyph>
<glyph name="hungarumlaut" format="1">
  <advance width="842"/>
  <unicode hex="02DD"/>
  <outline>
    <contour>
      <point x="206" y="1166" type="line"/>
      <point x="401" y="1500" type="line"/>
      <point x="244" y="1500" type="line"/>
      <point x="87" y="1166" type="line"/>
    </contour>
    <contour>
      <point x="583" y="1166" type="line"/>
      <point x="778" y="1500" type="line"/>
      <point x="621" y="1500" type="line"/>
      <point x="464" y="1166" type="line"/>
    </contour>
  </outline>
</glyph>
<glyph name="Wacute" format="1">
  <advance width="2112"/>
  <unicode hex="1E82"/>
  <outline>
    <contour>
      <point x="1261" y="1666" type="line"/>
      <point x="1456" y="2000" type="line"/>
      <point x="1299" y="2000" type="line"/>
      <point x="1142" y="1666" type="line"/>
    </contour>
    <contour>
      <point x="1534" y="0" type="line"/>
      <point x="2057" y="1500" type="line"/>
      <point x="2011" y="1500" type="line"/>
      <point x="1580" y="257" type="line"/>
      <point x="1152" y="1500" type="line"/>
      <point x="1104" y="1500" type="line"/>
      <point x="672" y="258" type="line"/>
      <point x="244" y="1500" type="line"/>
      <point x="55" y="1500" type="line"/>
      <point x="579" y="0" type="line"/>
      <point x="626" y="0" type="line"/>
      <point x="1057" y="1249" type="line"/>
      <point x="1487" y="0" type="line"/>
    </contour>
  </outline>
</glyph>
<glyph name="ygrave" format="1">
  <advance width="1083"/>
  <unicode hex="1EF3"/>
  <outline>
    <contour>
      <point x="407" y="-500" type="line"/>
      <point x="1028" y="1000" type="line"/>
      <point x="984" y="1000" type="line"/>
      <point x="653" y="202" type="line"/>
      <point x="246" y="1000" type="line"/>
      <point x="55" y="1000" type="line"/>
      <point x="575" y="13" type="line"/>
      <point x="363" y="-500" type="line"/>
    </contour>
    <contour>
      <point x="698.5" y="1166" type="line"/>
      <point x="540.5" y="1500" type="line"/>
      <point x="384.5" y="1500" type="line"/>
      <point x="578.5" y="1166" type="line"/>
    </contour>
  </outline>
</glyph>
<glyph name="dagger" format="1">
  <advance width="1146"/>
  <unicode hex="2020"/>
  <outline>
    <contour>
      <point x="661" y="0" type="line"/>
      <point x="601" y="954" type="line"/>
      <point x="991" y="895" type="line"/>
      <point x="991" y="1051" type="line"/>
      <point x="601" y="991" type="line"/>
      <point x="661" y="1500" type="line" name="at01"/>
      <point x="485" y="1500" type="line"/>
      <point x="545" y="991" type="line"/>
      <point x="155" y="1051" type="line"/>
      <point x="155" y="895" type="line"/>
      <point x="545" y="954" type="line"/>
      <point x="485" y="0" type="line" name="ab01"/>
    </contour>
  </outline>
</glyph>
<glyph name="trademark" format="1">
  <advance width="1569"/>
  <unicode hex="2122"/>
  <outline>
    <contour>
      <point x="363" y="780" type="line"/>
      <point x="363" y="1462" type="line"/>
      <point x="593" y="1462" type="line"/>
      <point x="593" y="1500" type="line"/>
      <point x="35" y="1500" type="line"/>
      <point x="35" y="1462" type="line"/>
      <point x="266" y="1462" type="line"/>
      <point x="266" y="780" type="line"/>
    </contour>
    <contour>
      <point x="1414" y="780" type="line"/>
      <point x="1414" y="1500" type="line"/>
      <point x="1368" y="1500" type="line"/>
      <point x="1065" y="990" type="line"/>
      <point x="752" y="1500" type="line"/>
      <point x="714" y="1500" type="line"/>
      <point x="714" y="780" type="line"/>
      <point x="755" y="780" type="line"/>
      <point x="755" y="1325" type="line"/>
      <point x="1011" y="901" type="line"/>
      <point x="1053" y="901" type="line"/>
      <point x="1317" y="1348" type="line"/>
      <point x="1317" y="780" type="line"/>
    </contour>
  </outline>
</glyph>
<glyph name="arrowdown" format="1">
  <advance width="1050"/>
  <unicode hex="2193"/>
  <outline>
    <contour>
      <point x="895" y="500" type="line"/>
      <point x="808" y="500" type="line" name="av01"/>
      <point x="560" y="119" type="line"/>
      <point x="566" y="1500" type="line"/>
      <point x="484" y="1500" type="line"/>
      <point x="490" y="118" type="line"/>
      <point x="242" y="500" type="line" name="av01"/>
      <point x="155" y="500" type="line"/>
      <point x="487" y="0" type="line" name="dh01.1"/>
      <point x="562" y="0" type="line" name="av01.1"/>
    </contour>
  </outline>
</glyph>
<glyph name="divisionslash" format="1">
  <advance width="731"/>
  <unicode hex="2215"/>
  <outline>
    <contour>
      <point x="69" y="-20" type="line" name="av01"/>
      <point x="706" y="1520" type="line" name="at01"/>
      <point x="662" y="1520" type="line"/>
      <point x="25" y="-20" type="line"/>
    </contour>
  </outline>
</glyph>
<glyph name="infinity" format="1">
  <advance width="1980"/>
  <unicode hex="221E"/>
  <outline>
    <contour>
      <point x="1475" y="84" type="curve" smooth="yes"/>
      <point x="1725" y="84"/>
      <point x="1905" y="255"/>
      <point x="1905" y="493" type="curve" smooth="yes"/>
      <point x="1905" y="728"/>
      <point x="1731" y="895"/>
      <point x="1488" y="895" type="curve" smooth="yes"/>
      <point x="1240" y="895"/>
      <point x="1119" y="722"/>
      <point x="1005" y="548" type="curve"/>
      <point x="848" y="795"/>
      <point x="705" y="895"/>
      <point x="510" y="895" type="curve" smooth="yes"/>
      <point x="257" y="895"/>
      <point x="75" y="725"/>
      <point x="75" y="488" type="curve" smooth="yes"/>
      <point x="75" y="252"/>
      <point x="255" y="84"/>
      <point x="507" y="84" type="curve" smooth="yes"/>
      <point x="759" y="84"/>
      <point x="885" y="251"/>
      <point x="998" y="421" type="curve"/>
      <point x="1159" y="177"/>
      <point x="1291" y="84"/>
    </contour>
    <contour>
      <point x="982" y="512" type="curve"/>
      <point x="877" y="351"/>
      <point x="771" y="202"/>
      <point x="568" y="202" type="curve" smooth="yes"/>
      <point x="378" y="202"/>
      <point x="246" y="331"/>
      <point x="246" y="519" type="curve" smooth="yes"/>
      <point x="246" y="705"/>
      <point x="374" y="835"/>
      <point x="554" y="835" type="curve" smooth="yes"/>
      <point x="712" y="835"/>
      <point x="843" y="735"/>
    </contour>
    <contour>
      <point x="1430" y="154" type="curve" smooth="yes"/>
      <point x="1284" y="154"/>
      <point x="1162" y="243"/>
      <point x="1020" y="455" type="curve"/>
      <point x="1168" y="690"/>
      <point x="1280" y="778"/>
      <point x="1429" y="778" type="curve" smooth="yes"/>
      <point x="1608" y="778"/>
      <point x="1735" y="650"/>
      <point x="1735" y="469" type="curve" smooth="yes"/>
      <point x="1735" y="286"/>
      <point x="1607" y="154"/>
    </contour>
  </outline>
</glyph>
<glyph name="f_f_i" format="1">
  <advance width="1851"/>
  <unicode hex="FB03"/>
  <outline>
    <contour>
      <point x="1083" y="0" type="line"/>
      <point x="1083" y="962" type="line"/>
      <point x="1531" y="962" type="line"/>
      <point x="1531" y="0" type="line"/>
      <point x="1696" y="0" type="line"/>
      <point x="1696" y="1000" type="line"/>
      <point x="1083" y="1000" type="line"/>
      <point x="1083" y="1242" type="line" smooth="yes"/>
      <point x="1083" y="1385"/>
      <point x="1160" y="1474"/>
      <point x="1275" y="1474" type="curve" smooth="yes"/>
      <point x="1322" y="1474"/>
      <point x="1374" y="1459"/>
      <point x="1429" y="1428" type="curve"/>
      <point x="1447" y="1462" type="line"/>
      <point x="1371" y="1508"/>
      <point x="1292" y="1530"/>
      <point x="1219" y="1530" type="curve" smooth="yes"/>
      <point x="1045" y="1530"/>
      <point x="919" y="1409"/>
      <point x="919" y="1215" type="curve" smooth="yes"/>
      <point x="919" y="1000" type="line"/>
      <point x="434" y="1000" type="line"/>
      <point x="434" y="1242" type="line" smooth="yes"/>
      <point x="434" y="1383"/>
      <point x="510" y="1474"/>
      <point x="626" y="1474" type="curve" smooth="yes"/>
      <point x="673" y="1474"/>
      <point x="725" y="1459"/>
      <point x="780" y="1428" type="curve"/>
      <point x="798" y="1462" type="line"/>
      <point x="723" y="1507"/>
      <point x="645" y="1530"/>
      <point x="569" y="1530" type="curve" smooth="yes"/>
      <point x="391" y="1530"/>
      <point x="270" y="1403"/>
      <point x="270" y="1215" type="curve" smooth="yes"/>
      <point x="270" y="1000" type="line"/>
      <point x="95" y="1000" type="line"/>
      <point x="95" y="962" type="line"/>
      <point x="270" y="962" type="line"/>
      <point x="270" y="0" type="line"/>
      <point x="434" y="0" type="line"/>
      <point x="434" y="962" type="line"/>
      <point x="919" y="962" type="line"/>
      <point x="919" y="0" type="line"/>
    </contour>
  </outline>
</glyph>
